<!DOCTYPE svg PUBLIC "-//W3C//DTD SVG 1.1//EN" "http://www.w3.org/Graphics/SVG/1.1/DTD/svg11.dtd">
<!-- Uploaded to: SVG Repo, www.svgrepo.com, Transformed by: SVG Repo Mixer Tools -->
<svg version="1.1" id="_x32_" xmlns="http://www.w3.org/2000/svg" xmlns:xlink="http://www.w3.org/1999/xlink" width="800px" height="800px" viewBox="0 0 512 512" xml:space="preserve" fill="#ffffff" stroke="#ffffff">
<g id="SVGRepo_bgCarrier" stroke-width="0"/>
<g id="SVGRepo_tracerCarrier" stroke-linecap="round" stroke-linejoin="round"/>
<g id="SVGRepo_iconCarrier"> <style type="text/css">  .st0{fill:#394560;}  </style> <g> <path class="st0" d="M509.681,102.798c-4.641-24-16.344-47.141-34.875-65.578C462.462,24.86,448.087,15.501,432.79,9.298 c-22.984-9.297-48.047-11.609-72.047-7c-23.953,4.641-47.047,16.391-65.578,34.922l-98.578,98.594 c-0.516,0.484-0.984,1-1.438,1.531c0.172-0.031,0.328-0.094,0.5-0.094c28.969-5.797,58.734-3.094,86.125,7.828 c0.141,0.031,0.297,0.125,0.438,0.172l60.516-60.516c5.906-5.891,12.578-10.203,19.781-13.109 c10.719-4.375,22.609-5.484,33.922-3.266c11.359,2.188,21.984,7.594,30.813,16.375c5.906,5.906,10.234,12.578,13.156,19.766 c4.375,10.719,5.469,22.625,3.266,33.953c-2.219,11.344-7.594,21.969-16.422,30.797l-98.609,98.625 c-5.891,5.906-12.547,10.234-19.734,13.156c-10.75,4.359-22.672,5.438-33.984,3.266c-11.297-2.219-21.953-7.594-30.813-16.422 c-4.766-4.797-8.484-10.078-11.297-15.75c-0.281-0.063-0.578-0.156-0.875-0.203c-6.578-1.234-13.625-0.547-19.797,2.031 c-4.266,1.781-8.141,4.359-11.484,7.734l-1.922,1.953c-10,12.125-17.875,29.266-2.109,51.828 c12.328,12.297,26.672,21.656,42,27.859c22.984,9.328,47.984,11.609,71.984,6.969c23.969-4.609,47.063-16.328,65.594-34.891 l98.609-98.594c12.313-12.328,21.688-26.719,27.891-42.047C512.009,151.813,514.306,126.782,509.681,102.798z"/> <path class="st0" d="M230.259,366.907c-0.188-0.094-0.313-0.125-0.469-0.188l-60.516,60.531 c-5.891,5.906-12.563,10.203-19.734,13.156c-10.75,4.375-22.641,5.438-33.953,3.266c-11.328-2.219-21.984-7.594-30.813-16.422 c-5.906-5.922-10.219-12.563-13.156-19.766c-4.359-10.719-5.453-22.609-3.25-33.953c2.188-11.328,7.578-21.953,16.406-30.797 l98.625-98.641c5.875-5.891,12.547-10.188,19.734-13.109c10.734-4.406,22.609-5.469,33.969-3.297 c11.313,2.234,21.953,7.594,30.781,16.406c4.797,4.781,8.516,10.109,11.344,15.781c0.266,0.078,0.563,0.141,0.859,0.219 c6.594,1.203,13.641,0.484,19.766-2.047c4.313-1.797,8.172-4.406,11.516-7.781l1.922-1.922c10-12.109,17.844-29.281,2.109-51.828 c-12.297-12.313-26.672-21.641-41.984-27.859c-23-9.297-48-11.609-72.031-6.984c-23.969,4.625-47.047,16.391-65.594,34.906 l-98.578,98.625c-12.344,12.266-21.719,26.703-27.891,42.031c-9.328,22.953-11.641,47.984-6.984,71.953 c4.641,24.047,16.359,47.094,34.875,65.594c12.328,12.359,26.719,21.719,42.031,27.938c22.984,9.313,48,11.594,72,6.953 c24-4.609,47.078-16.313,65.578-34.891l98.609-98.641c0.516-0.453,0.984-1,1.453-1.453c-0.156,0-0.344,0.063-0.5,0.063 C287.399,380.517,257.634,377.829,230.259,366.907z"/> </g> </g>
</svg>